<svg xmlns="http://www.w3.org/2000/svg" width="14" height="24" viewBox="0 0 14 24">
  <path id="Icon_metro-mic" data-name="Icon metro-mic" d="M15.355,18.428a3.821,3.821,0,0,0,3.889-3.75v-9a3.891,3.891,0,0,0-7.778,0v9A3.821,3.821,0,0,0,15.355,18.428Zm5.444-6v2.25a5.35,5.35,0,0,1-5.444,5.25,5.35,5.35,0,0,1-5.444-5.25v-2.25H8.355v2.25a6.845,6.845,0,0,0,6.222,6.708v3.042H11.466v1.5h7.778v-1.5H16.133V21.386a6.845,6.845,0,0,0,6.222-6.708v-2.25Z" transform="translate(-8.355 -1.928)" fill="#09b598"/>
</svg>
